{
  "accessors": [
    {
      "name": "floor-Mesh_0_positions",
      "componentType": 5126,
      "count": 171,
      "min": [
        -110.1107177734375,
        -2,
        -83.21145629882812
      ],
      "max": [
        110.02261352539062,
        0,
        83.21145629882812
      ],
      "type": "VEC3",
      "bufferView": 0,
      "byteOffset": 0
    },
    {
      "name": "floor-Mesh_0_indices",
      "componentType": 5123,
      "count": 852,
      "min": [
        0
      ],
      "max": [
        170
      ],
      "type": "SCALAR",
      "bufferView": 1,
      "byteOffset": 0
    },
    {
      "name": "toilet-Mesh_0_positions",
      "componentType": 5126,
      "count": 88,
      "min": [
        63.8001823425293,
        0,
        5.7472686767578125
      ],
      "max": [
        72.03267669677734,
        2,
        14.044824600219727
      ],
      "type": "VEC3",
      "bufferView": 0,
      "byteOffset": 2052
    },
    {
      "name": "toilet-Mesh_0_indices",
      "componentType": 5123,
      "count": 528,
      "min": [
        0
      ],
      "max": [
        87
      ],
      "type": "SCALAR",
      "bufferView": 1,
      "byteOffset": 1704
    },
    {
      "name": "elevator-Mesh_0_positions",
      "componentType": 5126,
      "count": 24,
      "min": [
        63.5617790222168,
        0,
        -14.587855339050293
      ],
      "max": [
        72.2710189819336,
        2,
        -5.817340850830078
      ],
      "type": "VEC3",
      "bufferView": 0,
      "byteOffset": 3108
    },
    {
      "name": "elevator-Mesh_0_indices",
      "componentType": 5123,
      "count": 132,
      "min": [
        0
      ],
      "max": [
        23
      ],
      "type": "SCALAR",
      "bufferView": 1,
      "byteOffset": 2760
    },
    {
      "name": "toilet_1-Mesh_0_positions",
      "componentType": 5126,
      "count": 88,
      "min": [
        -71.13314819335938,
        0,
        5.7472686767578125
      ],
      "max": [
        -62.90065002441406,
        2,
        14.044824600219727
      ],
      "type": "VEC3",
      "bufferView": 0,
      "byteOffset": 3396
    },
    {
      "name": "toilet_1-Mesh_0_indices",
      "componentType": 5123,
      "count": 528,
      "min": [
        0
      ],
      "max": [
        87
      ],
      "type": "SCALAR",
      "bufferView": 1,
      "byteOffset": 3024
    },
    {
      "name": "elevator_1-Mesh_0_positions",
      "componentType": 5126,
      "count": 24,
      "min": [
        -71.3714828491211,
        0,
        -14.587855339050293
      ],
      "max": [
        -62.66225051879883,
        2,
        -5.817340850830078
      ],
      "type": "VEC3",
      "bufferView": 0,
      "byteOffset": 4452
    },
    {
      "name": "elevator_1-Mesh_0_indices",
      "componentType": 5123,
      "count": 132,
      "min": [
        0
      ],
      "max": [
        23
      ],
      "type": "SCALAR",
      "bufferView": 1,
      "byteOffset": 4080
    },
    {
      "name": "escalator-Mesh_0_positions",
      "componentType": 5126,
      "count": 48,
      "min": [
        -9.70134449005127,
        0,
        -8.202083587646484
      ],
      "max": [
        9.61313247680664,
        2,
        8.202083587646484
      ],
      "type": "VEC3",
      "bufferView": 0,
      "byteOffset": 4740
    },
    {
      "name": "escalator-Mesh_0_indices",
      "componentType": 5123,
      "count": 264,
      "min": [
        0
      ],
      "max": [
        47
      ],
      "type": "SCALAR",
      "bufferView": 1,
      "byteOffset": 4344
    },
    {
      "name": "dev-Mesh_0_positions",
      "componentType": 5126,
      "count": 285,
      "min": [
        -97.91061401367188,
        0,
        4.791666507720947
      ],
      "max": [
        -62.16225051879883,
        3.5,
        71.01145935058594
      ],
      "type": "VEC3",
      "bufferView": 0,
      "byteOffset": 5316
    },
    {
      "name": "dev-Mesh_0_indices",
      "componentType": 5123,
      "count": 1626,
      "min": [
        0
      ],
      "max": [
        284
      ],
      "type": "SCALAR",
      "bufferView": 1,
      "byteOffset": 4872
    },
    {
      "name": "挤压.6-Mesh_0_positions",
      "componentType": 5126,
      "count": 278,
      "min": [
        62.2503547668457,
        0,
        4.791666507720947
      ],
      "max": [
        97.82271575927734,
        3.5,
        71.01145935058594
      ],
      "type": "VEC3",
      "bufferView": 0,
      "byteOffset": 8736
    },
    {
      "name": "挤压.6-Mesh_0_indices",
      "componentType": 5123,
      "count": 1584,
      "min": [
        0
      ],
      "max": [
        277
      ],
      "type": "SCALAR",
      "bufferView": 1,
      "byteOffset": 8124
    },
    {
      "name": "挤压.7-Mesh_0_positions",
      "componentType": 5126,
      "count": 275,
      "min": [
        -55.63623046875,
        0,
        -71.01145935058594
      ],
      "max": [
        -4.835825443267822,
        3.5,
        -4.791666507720947
      ],
      "type": "VEC3",
      "bufferView": 0,
      "byteOffset": 12072
    },
    {
      "name": "挤压.7-Mesh_0_indices",
      "componentType": 5123,
      "count": 1584,
      "min": [
        0
      ],
      "max": [
        274
      ],
      "type": "SCALAR",
      "bufferView": 1,
      "byteOffset": 11292
    },
    {
      "name": "挤压.10-Mesh_0_positions",
      "componentType": 5126,
      "count": 277,
      "min": [
        -55.63623046875,
        0,
        4.791666507720947
      ],
      "max": [
        -4.835931301116943,
        3.5,
        71.01145935058594
      ],
      "type": "VEC3",
      "bufferView": 0,
      "byteOffset": 15372
    },
    {
      "name": "挤压.10-Mesh_0_indices",
      "componentType": 5123,
      "count": 1584,
      "min": [
        0
      ],
      "max": [
        276
      ],
      "type": "SCALAR",
      "bufferView": 1,
      "byteOffset": 14460
    },
    {
      "name": "挤压.11-Mesh_0_positions",
      "componentType": 5126,
      "count": 277,
      "min": [
        4.747507572174072,
        0,
        -71.01145935058594
      ],
      "max": [
        55.72444152832031,
        3.5,
        -4.791666507720947
      ],
      "type": "VEC3",
      "bufferView": 0,
      "byteOffset": 18696
    },
    {
      "name": "挤压.11-Mesh_0_indices",
      "componentType": 5123,
      "count": 1584,
      "min": [
        0
      ],
      "max": [
        276
      ],
      "type": "SCALAR",
      "bufferView": 1,
      "byteOffset": 17628
    },
    {
      "name": "挤压.12-Mesh_0_positions",
      "componentType": 5126,
      "count": 275,
      "min": [
        4.747401714324951,
        0,
        4.791666507720947
      ],
      "max": [
        55.72444152832031,
        3.5,
        71.01145935058594
      ],
      "type": "VEC3",
      "bufferView": 0,
      "byteOffset": 22020
    },
    {
      "name": "挤压.12-Mesh_0_indices",
      "componentType": 5123,
      "count": 1584,
      "min": [
        0
      ],
      "max": [
        274
      ],
      "type": "SCALAR",
      "bufferView": 1,
      "byteOffset": 20796
    },
    {
      "name": "挤压.4-Mesh_0_positions",
      "componentType": 5126,
      "count": 274,
      "min": [
        -97.91082763671875,
        0,
        -71.01145935058594
      ],
      "max": [
        -62.16225051879883,
        3.5,
        -4.791666507720947
      ],
      "type": "VEC3",
      "bufferView": 0,
      "byteOffset": 25320
    },
    {
      "name": "挤压.4-Mesh_0_indices",
      "componentType": 5123,
      "count": 1584,
      "min": [
        0
      ],
      "max": [
        273
      ],
      "type": "SCALAR",
      "bufferView": 1,
      "byteOffset": 23964
    },
    {
      "name": "dev_1-Mesh_0_positions",
      "componentType": 5126,
      "count": 276,
      "min": [
        62.2503547668457,
        0,
        -71.01145935058594
      ],
      "max": [
        97.822509765625,
        3.5,
        -4.791666507720947
      ],
      "type": "VEC3",
      "bufferView": 0,
      "byteOffset": 28608
    },
    {
      "name": "dev_1-Mesh_0_indices",
      "componentType": 5123,
      "count": 1584,
      "min": [
        0
      ],
      "max": [
        275
      ],
      "type": "SCALAR",
      "bufferView": 1,
      "byteOffset": 27132
    }
  ],
  "asset": {
    "generator": "obj2gltf",
    "version": "2.0"
  },
  "buffers": [
    {
      "name": "F1",
      "byteLength": 62220,
      "uri": "data:application/octet-stream;base64,"
    }
  ],
  "bufferViews": [
    {
      "name": "bufferView_0",
      "buffer": 0,
      "byteLength": 31920,
      "byteOffset": 0,
      "byteStride": 12,
      "target": 34962
    },
    {
      "name": "bufferView_1",
      "buffer": 0,
      "byteLength": 30300,
      "byteOffset": 31920,
      "target": 34963
    }
  ],
  "materials": [
    {
      "name": "default",
      "pbrMetallicRoughness": {
        "baseColorFactor": [
          0.5,
          0.5,
          0.5,
          1
        ],
        "metallicFactor": 0,
        "roughnessFactor": 1
      },
      "emissiveFactor": [
        0,
        0,
        0
      ],
      "alphaMode": "OPAQUE",
      "doubleSided": false
    }
  ],
  "meshes": [
    {
      "name": "floor-Mesh",
      "primitives": [
        {
          "attributes": {
            "POSITION": 0
          },
          "indices": 1,
          "material": 0,
          "mode": 4
        }
      ]
    },
    {
      "name": "toilet-Mesh",
      "primitives": [
        {
          "attributes": {
            "POSITION": 2
          },
          "indices": 3,
          "material": 0,
          "mode": 4
        }
      ]
    },
    {
      "name": "elevator-Mesh",
      "primitives": [
        {
          "attributes": {
            "POSITION": 4
          },
          "indices": 5,
          "material": 0,
          "mode": 4
        }
      ]
    },
    {
      "name": "toilet_1-Mesh",
      "primitives": [
        {
          "attributes": {
            "POSITION": 6
          },
          "indices": 7,
          "material": 0,
          "mode": 4
        }
      ]
    },
    {
      "name": "elevator_1-Mesh",
      "primitives": [
        {
          "attributes": {
            "POSITION": 8
          },
          "indices": 9,
          "material": 0,
          "mode": 4
        }
      ]
    },
    {
      "name": "escalator-Mesh",
      "primitives": [
        {
          "attributes": {
            "POSITION": 10
          },
          "indices": 11,
          "material": 0,
          "mode": 4
        }
      ]
    },
    {
      "name": "dev-Mesh",
      "primitives": [
        {
          "attributes": {
            "POSITION": 12
          },
          "indices": 13,
          "material": 0,
          "mode": 4
        }
      ]
    },
    {
      "name": "挤压.6-Mesh",
      "primitives": [
        {
          "attributes": {
            "POSITION": 14
          },
          "indices": 15,
          "material": 0,
          "mode": 4
        }
      ]
    },
    {
      "name": "挤压.7-Mesh",
      "primitives": [
        {
          "attributes": {
            "POSITION": 16
          },
          "indices": 17,
          "material": 0,
          "mode": 4
        }
      ]
    },
    {
      "name": "挤压.10-Mesh",
      "primitives": [
        {
          "attributes": {
            "POSITION": 18
          },
          "indices": 19,
          "material": 0,
          "mode": 4
        }
      ]
    },
    {
      "name": "挤压.11-Mesh",
      "primitives": [
        {
          "attributes": {
            "POSITION": 20
          },
          "indices": 21,
          "material": 0,
          "mode": 4
        }
      ]
    },
    {
      "name": "挤压.12-Mesh",
      "primitives": [
        {
          "attributes": {
            "POSITION": 22
          },
          "indices": 23,
          "material": 0,
          "mode": 4
        }
      ]
    },
    {
      "name": "挤压.4-Mesh",
      "primitives": [
        {
          "attributes": {
            "POSITION": 24
          },
          "indices": 25,
          "material": 0,
          "mode": 4
        }
      ]
    },
    {
      "name": "dev_1-Mesh",
      "primitives": [
        {
          "attributes": {
            "POSITION": 26
          },
          "indices": 27,
          "material": 0,
          "mode": 4
        }
      ]
    }
  ],
  "nodes": [
    {
      "name": "floor",
      "mesh": 0
    },
    {
      "name": "toilet",
      "mesh": 1
    },
    {
      "name": "elevator",
      "mesh": 2
    },
    {
      "name": "toilet_1",
      "mesh": 3
    },
    {
      "name": "elevator_1",
      "mesh": 4
    },
    {
      "name": "escalator",
      "mesh": 5
    },
    {
      "name": "dev",
      "mesh": 6
    },
    {
      "name": "挤压.6",
      "mesh": 7
    },
    {
      "name": "挤压.7",
      "mesh": 8
    },
    {
      "name": "挤压.10",
      "mesh": 9
    },
    {
      "name": "挤压.11",
      "mesh": 10
    },
    {
      "name": "挤压.12",
      "mesh": 11
    },
    {
      "name": "挤压.4",
      "mesh": 12
    },
    {
      "name": "dev_1",
      "mesh": 13
    }
  ],
  "scene": 0,
  "scenes": [
    {
      "nodes": [
        0,
        1,
        2,
        3,
        4,
        5,
        6,
        7,
        8,
        9,
        10,
        11,
        12,
        13
      ]
    }
  ]
}
